<?xml version="1.0" encoding="UTF-8" standalone="no"?>
<svg
   xmlns:dc="http://purl.org/dc/elements/1.1/"
   xmlns:cc="http://creativecommons.org/ns#"
   xmlns:rdf="http://www.w3.org/1999/02/22-rdf-syntax-ns#"
   xmlns:svg="http://www.w3.org/2000/svg"
   xmlns="http://www.w3.org/2000/svg"
   xmlns:sodipodi="http://sodipodi.sourceforge.net/DTD/sodipodi-0.dtd"
   xmlns:inkscape="http://www.inkscape.org/namespaces/inkscape"
   version="1.1"
   width="524.40942"
   height="286.29919"
   fill="white"
   id="svg66"
   viewBox="0 0 524.40942 286.29919"
   sodipodi:docname="logo_new_white.svg"
   >
  <metadata
     id="metadata72">
    <rdf:RDF>
      <cc:Work
         rdf:about="">
        <dc:format>image/svg+xml</dc:format>
        <dc:type
           rdf:resource="http://purl.org/dc/dcmitype/StillImage" />
      </cc:Work>
    </rdf:RDF>
  </metadata>
  <defs
     id="defs70" />
  <sodipodi:namedview
     pagecolor="blue"
     bordercolor="#666666"
     borderopacity="1"
     objecttolerance="10"
     gridtolerance="10"
     guidetolerance="10"
     inkscape:pageopacity="0"
     inkscape:pageshadow="2"
     inkscape:window-width="640"
     inkscape:window-height="480"
     id="namedview68" />
  <path
     d="m 151.196,108.6443 h 5.9414 V 36.7081 h 215.3058 v 71.4671 c 0,0.3603 0.1089,0.4691 0.4692,0.4691 h 5.1599 c 0.3603,0 0.4688,-0.1088 0.4688,-0.4691 V 31.0785 c 0,-0.3603 -0.1085,-0.4692 -0.4688,-0.4692 H 151.196 Z"
     id="path2" />
  <path
     d="m 151.196,257.9899 h 227.3451 v -77.8785 h -5.6287 c -0.3603,0 -0.4692,0.1088 -0.4692,0.4691 v 71.4668 H 157.1374 v -71.9359 h -5.9414 z"
     id="path4" />
  <path
     d="m 169.177,165.4112 c 6.2258,0 5.16,0.8708 5.16,-3.2839 v -27.0542 c 0.1422,0.1636 0.0325,0.0241 0.1989,0.2702 0.0723,0.1068 0.188,0.2925 0.243,0.3824 l 12.8486,21.2408 c 0.538,-0.1434 0.352,-0.059 0.6276,-0.4669 l 1.2968,-2.1432 c 0.5675,-1.0151 1.0522,-1.9126 1.6407,-2.8942 0.5947,-0.9918 1.0601,-1.8527 1.6608,-2.8743 l 3.3245,-5.745 c 0.3249,-0.5406 0.4725,-0.849 0.7812,-1.408 l 2.5447,-4.3358 c 0.2922,-0.5038 0.5043,-1.0452 0.7954,-1.5503 l 0.9314,-1.4139 c 0,1.6849 -0.1573,2.7782 -0.1601,4.382 -0.002,0.9995 0.1553,1.2787 0.1664,2.1796 l -0.006,24.7147 h 5.3162 v -42.067 c -5.2776,0 -3.7985,-0.6763 -5.9106,2.846 l -9.8331,16.7502 c -0.4391,0.7894 -2.3675,4.3115 -2.863,4.6431 -0.1287,-0.4827 -0.5556,-1.053 -0.8311,-1.5142 l -8.3435,-13.7052 c -0.3433,-0.5772 -0.6142,-0.9698 -0.9592,-1.5429 -0.3345,-0.5559 -0.6027,-1.0075 -0.938,-1.5639 -0.3209,-0.5327 -0.5726,-0.9091 -0.9017,-1.444 l -2.3508,-3.9041 c -0.5785,-0.9499 -1.4465,-0.565 -4.4388,-0.565 z"
     id="path6" />
  <path
     d="m 217.8048,165.4112 h 5.0034 l -0.005,-24.4009 c 0.001,-0.9043 0.1423,-1.0653 0.1667,-1.8663 0.0476,-1.5602 -0.1614,-2.5266 -0.1614,-4.0709 0.4071,0.2727 2.1252,3.1558 2.6111,3.9566 l 10.8357,17.9368 c 0.5782,-0.1542 0.6208,-0.5536 1.0043,-1.1849 l 12.4426,-21.4906 c 0,9.5871 0.1259,19.9988 -0.003,29.5592 -0.0266,1.9766 -0.7018,1.561 5.0063,1.561 0.3603,0 0.4691,-0.1088 0.4691,-0.4691 v -41.1288 c 0,-0.7126 -1.1095,-0.4742 -1.8759,-0.4697 -0.8337,0.005 -1.6685,6e-4 -2.5022,6e-4 -0.1531,0.6574 -8.4444,14.6191 -9.6449,16.626 l -3.5796,6.1155 c -0.3359,0.5723 -0.5269,1.1481 -1.0043,1.4978 l -1.7881,-3.0591 c -0.333,-0.5525 -0.5442,-0.987 -0.8697,-1.476 -2.1806,-3.2783 -6.5423,-10.6073 -8.4347,-13.7701 -0.6214,-1.0381 -1.1979,-1.9426 -1.8346,-3.0133 -2.1906,-3.6825 -1.0993,-2.9208 -5.8357,-2.9208 z"
     id="path8" />
  <path
     d="m 348.0514,141.7975 h -7.9744 v -12.9799 h 7.6617 c 3.0714,0 6.0979,3.0405 6.0979,6.0991 0,2.1806 -0.3549,3.4194 -1.8362,4.8877 -0.5409,0.5361 -0.9261,0.9579 -1.6524,1.319 -0.4606,0.229 -1.703,0.6741 -2.2966,0.6741 z m -13.447,-18.1404 v 41.285 c 0,0.3603 0.1089,0.4691 0.4691,0.4691 h 4.5346 c 0.36,0 0.4689,-0.1088 0.4689,-0.4691 v -17.5147 h 5.1599 c 0.4606,0 0.2659,0.0788 0.4751,0.3067 0.0209,0.0232 0.3002,0.4504 0.3727,0.5655 l 3.6366,5.7455 c 1.5344,2.6011 6.0511,9.1143 7.2425,11.3661 h 6.0979 c -0.0788,-0.9473 -2.2,-3.9257 -2.7241,-4.7818 l -5.781,-9.2307 c -0.464,-0.6908 -2.7756,-4.2542 -2.9089,-4.7534 1.537,-0.8133 3.0382,-1.5404 4.267,-2.7695 4.663,-4.6638 4.6565,-12.4648 -0.009,-17.1278 -2.1974,-2.1965 -5.4986,-3.56 -8.7928,-3.56 h -12.0396 c -0.3602,0 -0.4691,0.1086 -0.4691,0.4691 z"
     id="path10" />
  <path
     d="m 266.4323,123.8133 v 41.1288 c 0,0.3603 0.1086,0.4691 0.4689,0.4691 h 22.9847 v -4.8478 h -17.9813 v -14.3872 h 15.7924 c 0.3603,0 0.4691,-0.1089 0.4691,-0.4692 v -3.9095 c 0,-0.3603 -0.1088,-0.4692 -0.4691,-0.4692 h -15.7924 v -13.136 h 17.1995 c 0.3603,0 0.4691,-0.1088 0.4691,-0.4694 v -4.3787 h -22.672 c -0.3603,0 -0.4689,0.1089 -0.4689,0.4691 z"
     id="path12" />
  <path
     d="m 115.7026,133.5092 c 0,5.8196 3.1184,8.3237 7.3559,10.7836 1.37,0.7951 3.7403,1.5764 5.3115,2.3502 2.1609,1.0647 4.4442,2.0364 6.0875,3.9201 0.3903,0.4478 0.7392,0.9002 0.9725,1.5292 1.042,2.8094 0.1157,5.3799 -2.1906,7.0884 -3.3106,2.4528 -10.9871,1.6018 -14.6591,0.2247 -0.7061,-0.265 -1.4907,-0.7338 -2.0959,-0.875 -0.7376,1.3943 -1.1815,3.2434 -1.8763,4.6916 4.3053,2.2782 8.6891,2.1892 13.6032,2.1892 5.4139,0 10.9466,-2.8429 12.4943,-7.8332 1.3362,-4.3093 0.2052,-8.9941 -3.3588,-11.7811 -5.6619,-4.428 -11.1467,-5.2212 -14.5735,-8.5692 -3.0824,-3.0115 -3.0673,-11.3581 11.361,-8.8605 0.7418,0.1281 1.6954,0.3861 2.3831,0.5879 0.4246,0.1247 0.7977,0.2052 1.2067,0.3566 0.4867,0.1803 0.5182,0.288 1.2759,0.288 0.1763,-0.7568 0.4535,-1.364 0.7069,-2.1081 0.8156,-2.3964 1.9591,-2.7391 -3.7434,-3.7687 -3.2675,-0.5899 -4.8458,-0.5349 -8.0648,-0.5349 -3.6596,0 -6.4543,1.0885 -8.5794,2.679 -2.0163,1.5089 -3.6167,4.1341 -3.6167,7.6422 z"
     id="path14" />
  <path
     d="m 94.5941,136.9497 6.2544,17.0455 H 88.0271 c 0.0706,-0.847 4.7525,-12.4718 5.2585,-13.9756 0.2237,-0.6645 0.36,-0.968 0.5851,-1.6041 0.2001,-0.5658 0.3152,-1.1668 0.7234,-1.4658 z m -15.9486,28.4615 h 5.3164 l 1.9868,-5.6755 c 0.3943,-0.9975 0.6605,-1.8428 1.0505,-2.8588 l 1.0279,-2.8817 h 12.8214 c 0.8949,1.8652 1.3907,3.9249 2.1432,5.8323 0.3958,1.0032 0.6537,1.8323 1.05,2.8593 1.3388,3.4696 -0.1604,2.7244 5.8757,2.7244 0.6856,0 0.3404,-0.525 0.1675,-0.9312 l -9.5035,-25.2303 c -0.3549,-0.9065 -0.6854,-1.7155 -1.002,-2.5946 l -3.0186,-8.0841 c -0.3509,-0.9096 -0.7027,-1.7731 -1.0052,-2.5917 -0.337,-0.9122 -0.7398,-1.8402 -0.9615,-2.7913 -0.432,0.3164 -0.904,1.9032 -1.118,2.4784 -0.3075,0.8254 -0.6474,1.7095 -0.9731,2.6237 l -3.9886,10.5542 c -0.6537,1.804 -1.3782,3.5802 -2.0282,5.3215 -1.3354,3.5773 -2.5779,7.0149 -3.9776,10.5656 -0.5485,1.3915 -3.8463,9.9281 -3.8631,10.6798 z"
     id="path16" />
  <path
     d="m 432.6412,136.9497 6.2544,17.0455 h -12.8214 c 0.0635,-0.7613 4.8495,-12.7601 5.2588,-13.9756 0.2191,-0.6511 0.868,-2.7473 1.3082,-3.0699 z m -15.9486,28.4615 h 5.3164 c 0.0746,-0.896 3.7321,-9.985 4.0652,-11.416 h 12.8214 c 0.6562,1.3678 2.9131,7.9796 3.7522,10.1657 0.6245,1.6276 -0.3512,1.2503 5.3166,1.2503 0.7546,0 0.2217,-0.8311 -0.3353,-2.323 -0.311,-0.8334 -0.6627,-1.6883 -1.006,-2.5908 l -4.0215,-10.6779 c -2.5277,-6.4768 -4.9408,-13.3353 -7.5053,-19.8604 l -2.4551,-6.7711 c -0.4762,0.349 -1.8615,4.4581 -2.0911,5.1021 -0.3339,0.938 -0.6262,1.6764 -0.9893,2.6073 l -2.9982,7.9481 c -0.3113,0.9382 -0.6341,1.6829 -0.9811,2.6155 l -5.9839,15.9089 c -0.3405,0.8949 -0.6769,1.777 -1.006,2.5906 -0.351,0.8668 -0.6597,1.7368 -0.9788,2.6178 -0.2336,0.6443 -0.904,2.1098 -0.9202,2.8329 z"
     id="path18" />
  <path
     d="m 399.8061,149.4604 v 15.9508 h 5.3161 v -16.42 c 0,-0.5031 6.1409,-11.5945 6.7748,-12.772 l 4.3276,-7.8696 c 0.5267,-1.0681 2.4237,-4.0793 2.5007,-5.0054 h -5.6287 l -5.7642,11.1246 c -0.2342,0.4286 -0.4326,0.7996 -0.6466,1.2297 -0.7869,1.5811 -3.532,6.5599 -3.7526,7.5064 -0.4917,-0.3603 -2.7575,-5.0562 -3.4097,-6.1291 l -6.6476,-12.4302 c -0.2712,-0.5428 -0.4756,-0.8175 -0.7316,-1.3014 h -6.0979 c 0.0754,0.9071 4.1998,8.1176 5.1098,9.7458 l 7.0843,12.9317 c 0.4184,0.8081 1.5656,2.3924 1.5656,3.4387 z"
     id="path20" />
  <path
     d="m 295.9841,123.8133 v 3.9096 c 0,0.3606 0.1085,0.4694 0.4688,0.4694 h 12.5088 v 36.7498 c 0,0.3603 0.1088,0.4691 0.4691,0.4691 h 4.5343 c 0.3603,0 0.4691,-0.1088 0.4691,-0.4691 v -36.7498 h 12.5087 c 0.3603,0 0.4692,-0.1088 0.4692,-0.4694 v -3.9096 c 0,-0.3602 -0.1089,-0.4691 -0.4692,-0.4691 h -30.49 c -0.3603,0 -0.4688,0.1089 -0.4688,0.4691 z"
     id="path22" />
  <path
     d="m 372.4432,123.6571 v 41.4415 c 0,0.3602 0.1089,0.4691 0.4692,0.4691 h 5.1599 c 0.3603,0 0.4688,-0.1089 0.4688,-0.4691 v -41.4415 c 0,-0.3605 -0.1085,-0.4691 -0.4688,-0.4691 h -5.1599 c -0.3603,0 -0.4692,0.1086 -0.4692,0.4691 z"
     id="path24" />
  <path
     d="m 151.196,165.5677 h 5.9414 V 123.188 h -5.9414 z"
     id="path26" />
  <path
     d="m 300.0492,184.1771 -2.3454,-0.1562 c 0,-0.9382 9e-4,-1.8768 0,-2.8151 -0.002,-2.2767 -0.3733,-2.3456 1.251,-2.3456 2.2476,0 4.3781,0.4303 4.3781,2.6586 0,1.7376 -1.5407,2.6583 -3.2837,2.6583 z m 0,-7.037 h -2.3454 v -4.8481 c 2.1952,0 5.1599,-0.6236 5.1599,2.346 0,1.3119 -1.9091,2.5021 -2.8145,2.5021 z m -4.2216,-6.4117 v 15.0126 c 0.7928,0 0.8518,0.1565 1.72,0.1565 2.7131,0 6.0152,0.307 7.4574,-2.5501 0.7101,-1.4065 0.667,-3.1833 -0.3787,-4.3735 -0.5527,-0.6296 -0.7384,-0.7155 -1.4536,-1.0483 -0.0666,-0.0309 -0.2681,-0.1233 -0.3197,-0.1494 l -0.2024,-0.1105 c -0.0213,-0.0114 -0.0683,-0.0346 -0.0995,-0.0564 1.6931,-0.3946 2.7312,-2.4237 2.3579,-4.3872 -0.7331,-3.8534 -6.6623,-2.6952 -9.0814,-2.4937 z"
     id="path28" />
  <path
     d="m 176.5261,175.5762 h 0.3127 c 0.0814,0.9783 1.3224,3.2046 1.4071,4.2222 h -3.1271 c 0.0742,-0.8923 1.3404,-3.4182 1.4073,-4.2222 z m -5.629,10.1648 h 2.0327 c 0.0567,-0.6814 0.7917,-2.3698 1.0656,-3.1564 0.4371,-1.2546 -0.1214,-0.9096 4.7196,-0.9096 0.5131,0 0.4808,0.3679 0.6146,0.7928 0.2568,0.8147 1.0576,2.6989 1.1055,3.2732 h 2.0324 l -4.223,-11.4143 c -0.2509,-0.631 -0.474,-1.2415 -0.722,-1.9366 -0.2616,-0.7339 -0.5074,-1.2169 -0.6837,-1.9746 h -0.3127 c -0.1604,0.6888 -0.4164,1.1687 -0.6448,1.8572 -0.2149,0.6481 -0.5131,1.3077 -0.739,1.9194 -0.4901,1.3272 -0.9675,2.5393 -1.4488,3.8681 l -2.1473,5.6716 c -0.2228,0.5984 -0.5964,1.3762 -0.6491,2.0092 z"
     id="path30" />
  <path
     d="m 202.6381,185.741 h 1.8762 v -6.2552 c 0,-3.5513 5.0034,-4.6375 5.0034,-0.4692 v 6.7244 h 1.8763 v -7.6626 c 0,-2.9747 -1.7036,-3.4404 -3.909,-3.4404 -1.4782,0 -2.0988,0.667 -2.9707,1.2509 v -5.3169 h -1.8762 z"
     id="path32" />
  <path
     d="m 332.572,176.358 h 0.3126 c 1.2677,0 2.0328,0.7651 2.0328,2.0331 v 0.6255 h -4.8473 c 0,-1.6262 0.9009,-2.6586 2.5019,-2.6586 z m -4.6908,3.9096 c 0,7.6527 7.4843,6.0576 8.5997,4.5351 -0.1253,-0.5369 -0.3906,-0.9635 -0.6256,-1.4074 -2.4338,1.6302 -5.5831,1.4919 -5.9417,-2.8148 h 6.88 c 0.1766,-1.4876 0.3067,-1.7711 -0.0638,-3.3766 -0.1315,-0.5698 -0.3846,-0.9652 -0.6882,-1.3448 -1.264,-1.58 -5.3104,-1.9556 -7.0708,0.4941 -0.6312,0.8785 -1.0896,2.4143 -1.0896,3.9144 z"
     id="path34" />
  <path
     d="m 232.8151,176.358 h 0.3127 c 1.6384,0 2.0642,1.1591 2.1892,2.6586 h -5.0037 c 0,-1.6262 0.9011,-2.6586 2.5018,-2.6586 z m -4.6908,3.7534 c 0,8.0696 7.6162,6.0341 8.5998,4.6913 -0.125,-0.5369 -0.3906,-0.9635 -0.6253,-1.4074 -2.6896,1.8012 -5.855,1.0766 -5.9417,-2.8148 h 6.8797 c 0.0229,-1.0272 1.0573,-5.9425 -3.5964,-5.9425 -1.7095,0 -3.0319,0.0717 -4.2496,1.692 -0.6577,0.8753 -1.0665,2.7609 -1.0665,3.7814 z"
     id="path36" />
  <path
     d="m 281.9117,176.358 h 0.3127 c 1.69,0 2.0602,1.1098 2.1889,2.6586 h -5.0034 c 0,-1.5409 0.9887,-2.6586 2.5018,-2.6586 z m 0,9.6959 c 1.5574,0 2.8171,-0.3634 3.909,-1.0947 -0.051,-0.6126 -0.3844,-1.1081 -0.6256,-1.5639 -1.7952,1.2025 -4.0218,1.266 -5.1038,-0.0558 -0.5283,-0.6455 -0.7537,-1.7487 -0.8376,-2.759 h 6.8797 c 0.0799,-0.9603 0.1565,-0.4541 0.1565,-2.033 0,-4.4881 -4.8873,-4.3954 -6.7811,-3.3415 -3.306,1.84 -3.3908,10.8479 2.4029,10.8479 z"
     id="path38" />
  <path
     d="m 343.2042,184.1771 c -2.5413,0 -2.7757,-2.4738 -0.5114,-3.0135 1.5596,-0.3716 2.0809,-0.1312 2.8567,-0.1139 0,1.402 0.2263,1.9547 -0.8008,2.6393 -0.4104,0.2736 -0.8832,0.4881 -1.5445,0.4881 z m -3.4399,-8.4447 c 0.163,0.3396 0.4323,0.9647 0.4691,1.4077 1.6577,-0.0371 5.4726,-2.6251 5.4726,1.8765 0,0.9942 -1.87,0.0477 -4.35,0.8102 -3.5314,1.0854 -2.5254,6.0707 0.7537,6.0707 2.658,0 2.3017,-0.4357 3.7525,-1.4074 0.5315,1.1077 -0.2001,1.4074 1.4074,1.4074 0.7583,0 0.072,-1.7351 0.1511,-4.3838 0.1009,-3.371 1.3714,-8.1147 -5.7736,-6.5568 -0.7659,0.1669 -1.2668,0.4498 -1.8828,0.7755 z"
     id="path40" />
  <path
     d="m 350.8659,175.2633 v 5.4734 c 0,3.5337 0.6432,5.3172 3.9087,5.3172 1.1104,0 2.2161,-0.6454 2.9274,-1.451 l 0.3563,-0.4258 c 0.0516,0.6202 0.261,0.9439 0.3126,1.5639 h 1.4074 c 0,-0.8289 -0.159,-1.5775 -0.1567,-2.6583 l 0.0139,-7.2074 c 0.009,-1.22 0.1071,-1.0811 -1.5772,-1.0811 -0.7461,0 -0.4692,1.2676 -0.4692,2.6586 3e-4,2.6436 0.5035,5.4703 -1.3461,6.4726 -4.0564,2.198 -3.3449,-3.7618 -3.3446,-6.4726 2e-4,-3.0045 0.388,-2.6586 -1.5636,-2.6586 -0.3603,0 -0.4689,0.1088 -0.4689,0.4691 z"
     id="path42" />
  <path
     d="m 257.8326,175.2633 c 0,2.7215 -0.4374,8.0022 0.7713,9.7061 0.8909,1.2558 3.3035,1.3915 4.8129,0.5709 0.7169,-0.3898 0.8442,-0.7999 1.4519,-1.2067 0.1633,0.3407 0.3014,0.8997 0.3127,1.4074 h 1.4071 c 0,-1.0976 -0.165,-1.525 -0.1584,-2.6564 l 0.0155,-7.2093 c 0.01,-1.2515 0.1429,-1.0811 -1.8898,-1.0811 v 6.5681 c 0,1.4664 -1.3493,2.9713 -2.8142,2.9713 -1.8936,0 -2.0328,-1.8765 -2.0328,-3.7531 v -5.7863 c -1.3337,0 -1.8762,-0.1837 -1.8762,0.4691 z"
     id="path44" />
  <path
     d="m 308.4925,182.4571 c 0,3.8177 3.6076,4.1581 5.5845,3.0832 0.7166,-0.3898 0.8442,-0.7999 1.4517,-1.2067 0.1355,0.5814 0.297,0.7021 0.3129,1.4074 h 1.4071 c 0,-0.936 -0.161,-1.533 -0.1567,-2.658 l 0.0139,-7.2077 c 0.01,-1.2515 0.1428,-1.0811 -1.8899,-1.0811 v 6.5681 c 0,2.6986 -4.847,5.2988 -4.847,-0.3126 v -6.2555 h -1.8765 z"
     id="path46" />
  <path
     d="m 221.4009,172.7612 v 2.033 c -1.8295,0 -1.5636,-0.2716 -1.5636,1.7203 h 1.5636 c 0,1.622 -0.1656,6.9551 0.3673,8.2335 0.9811,2.3534 4.949,0.8912 4.949,0.5239 0,-0.6727 -0.1825,-0.8476 -0.3129,-1.4074 -3.4127,0.7951 -2.9707,1.4655 -2.9707,-7.35 3.3641,0 2.9707,0.3081 2.9707,-1.2512 0,-0.7467 -1.0466,-0.4691 -2.9707,-0.4691 v -2.5022 c -0.6786,0.0153 -1.3882,0.3192 -2.0327,0.4692 z"
     id="path48" />
  <path
     d="m 250.4837,173.0741 v 1.7201 c -2.006,0 -1.72,-0.2861 -1.72,1.7203 h 1.72 v 7.0373 c 0,3.922 4.3577,2.0999 5.3161,1.8765 -0.1258,-0.5408 -0.2528,-1.1131 -0.4691,-1.5638 -0.5051,0.1176 -1.3547,0.5465 -2.0041,0.4442 -0.6871,-0.1081 -0.9666,-0.8672 -0.9666,-1.6952 v -6.099 h 2.9707 c 0,-2.1325 0.4955,-1.7203 -2.9707,-1.7203 v -2.5022 c -0.5562,0.0125 -1.8763,0.1786 -1.8763,0.7821 z"
     id="path50" />
  <path
     d="m 191.8491,179.9549 c 0,4.6987 2.0381,6.9647 6.5704,5.7895 0.7793,-0.2021 1.0276,-0.4867 1.5602,-0.6287 -0.0507,-0.6126 -0.3841,-1.1081 -0.6253,-1.5639 -0.525,0.14 -0.4995,0.3132 -1.0471,0.5165 -5.4309,2.0182 -5.7756,-7.7103 -1.7674,-7.7103 2.0177,0 1.7158,0.4448 2.8145,0.4692 0.0547,-0.6588 0.3127,-0.8292 0.3127,-1.4074 0,-0.7098 -7.818,-2.7414 -7.818,4.5351 z"
     id="path52" />
  <path
     d="m 239.3821,179.4858 c 0,1.8371 -0.038,3.67 1.1347,5.1205 1.6336,2.0208 4.9139,1.7473 6.996,0.3529 -0.2458,-0.4643 -0.3796,-0.9431 -0.6254,-1.4074 -0.3506,0.0936 -1.3844,0.7818 -2.3453,0.7818 -2.7188,0 -3.1272,-2.2572 -3.1272,-4.3787 0,-5.3234 4.6888,-3.1799 5.3161,-3.1277 0.1757,-0.366 0.428,-1.0684 0.4691,-1.5639 -1.8102,-0.9578 -5.2418,-1.0242 -6.6651,0.8402 -0.5737,0.7517 -1.1529,2.1299 -1.1529,3.3823 z"
     id="path54" />
  <path
     d="m 322.4086,175.8889 c -0.1479,-0.3081 -0.2259,-0.722 -0.3129,-1.0947 -0.6962,0 -1.4071,-0.2084 -1.4071,0.4691 v 10.4777 c 2.482,0 2.0347,0.2531 2.0327,-2.3457 l 0.0394,-5.5902 c 0.4399,-1.8255 2.6153,-1.1341 3.244,-1.1341 0.0175,-0.7815 0.2953,-1.0953 0.3129,-1.8768 -1.0828,-0.1285 -1.9842,-0.3952 -2.9103,0.2168 -0.4161,0.2753 -0.5604,0.5842 -0.9987,0.8779 z"
     id="path56" />
  <path
     d="m 271.7484,175.8889 -0.3345,-1.0874 c -0.6746,-0.007 -1.3856,-0.2157 -1.3856,0.4618 v 10.4777 h 2.0328 v -7.5064 c 0,-2.3701 2.9528,-1.571 3.2836,-1.5636 0.0556,-0.6676 0.2968,-1.1622 0.3127,-1.8768 -0.7251,-0.0162 -0.5579,-0.1562 -1.5636,-0.1562 -1.4083,0 -1.5463,0.7157 -2.3454,1.2509 z"
     id="path58" />
  <path
     d="m 186.533,175.8889 h -0.3126 c -0.0284,-1.2727 -0.3629,-1.0947 -1.5636,-1.0947 v 10.9468 h 1.8762 v -7.3499 c 0,-0.8689 0.9397,-1.8766 1.7198,-1.8766 0.8682,0 0.9272,0.1565 1.7201,0.1565 0,-0.7421 0.1751,-1.1296 0.3126,-1.7204 -1.2061,-0.5788 -3.3984,-0.3877 -3.7525,0.9383 z"
     id="path60" />
  <path
     d="m 215.303,185.741 h 1.8762 v -10.9468 h -1.8762 z"
     id="path62" />
  <path
     d="m 216.0848,172.9176 c 2.1894,0 1.6389,-2.5021 0.1564,-2.5021 -1.7158,0 -1.8235,2.5021 -0.1564,2.5021 z"
     id="path64" />
</svg>
