<?xml version="1.0" encoding="UTF-8"?>
<!DOCTYPE svg PUBLIC "-//W3C//DTD SVG 1.1//EN" "http://www.w3.org/Graphics/SVG/1.1/DTD/svg11.dtd">
<!-- Creator: CorelDRAW 2018 (64-Bit) -->
<svg 
 xmlns="http://www.w3.org/2000/svg" 
 xml:space="preserve" width="185mm" 
 height="101mm" 
 version="1.1" 
 fill="white"
 viewBox="0 0 18500 10100"
 xmlns:xlink="http://www.w3.org/1999/xlink"
 >
 <g id="logo">
  <metadata id="CorelCorpID_0Corel-Layer"/>
  <g id="_2779384638688">
   <path class="fil0" d="M5333.86 3832.73l209.6 0 0 -2537.75 7595.51 0 0 2521.2c0,12.71 3.84,16.55 16.55,16.55l182.03 0c12.71,0 16.54,-3.84 16.54,-16.55l0 -2719.8c0,-12.71 -3.83,-16.55 -16.54,-16.55l-8003.69 0 0 2752.9z"/>
   <path class="fil0" d="M5333.86 9101.31l8020.23 0 0 -2747.38 -198.57 0c-12.71,0 -16.55,3.84 -16.55,16.55l0 2521.19 -7595.51 0 0 -2537.74 -209.6 0 0 2747.38z"/>
   <path class="fil0" d="M5968.19 5835.34c219.63,0 182.03,30.72 182.03,-115.85l0 -954.41c5.02,5.77 1.15,0.85 7.02,9.53 2.55,3.77 6.63,10.32 8.57,13.49l453.27 749.33c18.98,-5.06 12.42,-2.08 22.14,-16.47l45.75 -75.61c20.02,-35.81 37.12,-67.47 57.88,-102.1 20.98,-34.99 37.4,-65.36 58.59,-101.4l117.28 -202.67c11.46,-19.07 16.67,-29.95 27.56,-49.67l89.77 -152.96c10.31,-17.77 17.79,-36.87 28.06,-54.69l32.86 -49.88c0,59.44 -5.55,98.01 -5.65,154.59 -0.06,35.26 5.48,45.11 5.87,76.89l-0.22 871.88 187.54 0 0 -1484.03c-186.18,0 -134,-23.86 -208.51,100.4l-346.89 590.91c-15.49,27.85 -83.52,152.1 -101,163.8 -4.54,-17.03 -19.6,-37.15 -29.32,-53.42l-294.34 -483.49c-12.11,-20.36 -21.67,-34.21 -33.84,-54.43 -11.8,-19.61 -21.26,-35.54 -33.09,-55.17 -11.32,-18.79 -20.2,-32.07 -31.81,-50.94l-82.93 -137.73c-20.41,-33.51 -51.03,-19.93 -156.59,-19.93l0 1484.03z"/>
   <path class="fil0" d="M7683.67 5835.34l176.51 0 -0.19 -860.81c0.04,-31.9 5.02,-37.58 5.88,-65.84 1.68,-55.04 -5.69,-89.13 -5.69,-143.61 14.36,9.62 74.97,111.33 92.11,139.58l382.26 632.77c20.4,-5.44 21.9,-19.53 35.43,-41.8l438.95 -758.14c0,338.21 4.44,705.51 -0.1,1042.78 -0.94,69.73 -24.76,55.07 176.61,55.07 12.71,0 16.55,-3.84 16.55,-16.55l0 -1450.93c0,-25.14 -39.14,-16.73 -66.18,-16.57 -29.41,0.18 -58.86,0.02 -88.27,0.02 -5.4,23.19 -297.9,515.73 -340.25,586.53l-126.28 215.74c-11.85,20.19 -18.59,40.5 -35.43,52.84l-63.08 -107.92c-11.75,-19.49 -19.2,-34.82 -30.68,-52.07 -76.93,-115.65 -230.8,-374.2 -297.56,-485.78 -21.92,-36.62 -42.26,-68.53 -64.72,-106.3 -77.28,-129.91 -38.78,-103.04 -205.87,-103.04l0 1484.03z"/>
   <path class="fil0" d="M12278.48 5002.3l-281.32 0 0 -457.9 270.29 0c108.35,0 215.12,107.26 215.12,215.16 0,76.93 -12.52,120.63 -64.78,172.43 -19.08,18.91 -32.67,33.79 -58.29,46.53 -16.25,8.08 -60.08,23.78 -81.02,23.78zm-474.38 -639.95l0 1456.44c0,12.71 3.84,16.55 16.55,16.55l159.97 0c12.7,0 16.54,-3.84 16.54,-16.55l0 -617.88 182.03 0c16.25,0 9.38,2.78 16.76,10.82 0.74,0.82 10.59,15.89 13.15,19.95l128.29 202.69c54.13,91.76 213.47,321.53 255.5,400.97l215.12 0c-2.78,-33.42 -77.61,-138.49 -96.1,-168.69l-203.94 -325.64c-16.37,-24.37 -97.92,-150.08 -102.62,-167.69 54.22,-28.69 107.18,-54.34 150.53,-97.7 164.5,-164.53 164.27,-439.73 -0.31,-604.23 -77.52,-77.49 -193.98,-125.59 -310.19,-125.59l-424.73 0c-12.71,0 -16.55,3.83 -16.55,16.55z"/>
   <path class="fil0" d="M9399.14 4367.86l0 1450.93c0,12.71 3.83,16.55 16.54,16.55l810.85 0 0 -171.02 -634.34 0 0 -507.55 557.12 0c12.71,0 16.55,-3.84 16.55,-16.55l0 -137.92c0,-12.71 -3.84,-16.55 -16.55,-16.55l-557.12 0 0 -463.41 606.76 0c12.71,0 16.55,-3.84 16.55,-16.56l0 -154.47 -799.82 0c-12.71,0 -16.54,3.84 -16.54,16.55z"/>
   <path class="fil0" d="M4081.73 4709.91c0,205.3 110.01,293.64 259.5,380.42 48.33,28.05 131.95,55.61 187.38,82.91 76.23,37.56 156.78,71.84 214.75,138.29 13.77,15.8 26.08,31.76 34.31,53.95 36.76,99.11 4.08,189.79 -77.28,250.06 -116.79,86.53 -387.6,56.51 -517.14,7.93 -24.91,-9.35 -52.59,-25.89 -73.94,-30.87 -26.02,49.19 -41.68,114.42 -66.19,165.51 151.88,80.37 306.53,77.23 479.89,77.23 190.99,0 386.17,-100.29 440.77,-276.34 47.14,-152.02 7.24,-317.29 -118.49,-415.61 -199.74,-156.21 -393.23,-184.19 -514.12,-302.3 -108.74,-106.24 -108.21,-400.69 400.79,-312.58 26.17,4.52 59.81,13.62 84.07,20.74 14.98,4.4 28.14,7.24 42.57,12.58 17.17,6.36 18.28,10.16 45.01,10.16 6.22,-26.7 16,-48.12 24.94,-74.37 28.77,-84.54 69.11,-96.63 -132.06,-132.95 -115.27,-20.81 -170.95,-18.87 -284.51,-18.87 -129.1,0 -227.69,38.4 -302.66,94.51 -71.13,53.23 -127.59,145.84 -127.59,269.6z"/>
   <path class="fil0" d="M3337.07 4831.28l159.97 435.83 -325.45 0c2.49,-29.88 101.47,-274.48 119.32,-327.53 7.89,-23.44 12.7,-34.15 20.64,-56.59 7.06,-19.96 11.12,-41.16 25.52,-51.71zm-562.63 1004.06l187.55 0 70.09 -200.22c13.91,-35.19 23.3,-65.01 37.06,-100.85l36.26 -101.66 452.31 0c31.57,65.8 49.06,138.46 75.61,205.75 13.96,35.39 23.06,64.64 37.04,100.87 47.23,122.4 -5.66,96.11 207.28,96.11 24.19,0 12.01,-18.52 5.91,-32.85l-335.26 -890.07c-12.52,-31.98 -24.18,-60.52 -35.35,-91.53l-106.49 -285.19c-12.38,-32.09 -24.79,-62.55 -35.46,-91.43 -11.89,-32.18 -26.1,-64.92 -33.92,-98.47 -15.24,11.16 -31.89,67.14 -39.44,87.43 -10.85,29.12 -22.84,60.31 -34.33,92.56l-140.71 372.33c-23.06,63.64 -48.62,126.3 -71.55,187.73 -47.11,126.2 -90.94,247.47 -140.32,372.73 -19.35,49.09 -135.69,350.24 -136.28,376.76z"/>
   <path class="fil0" d="M15262.62 4831.28l159.97 435.83 -325.45 0c2.24,-26.86 104.89,-284.65 119.33,-327.53 7.73,-22.97 30.62,-96.92 46.15,-108.3zm-562.63 1004.06l187.55 0c2.63,-31.61 131.66,-352.25 143.41,-402.73l452.31 0c23.15,48.25 102.77,281.5 132.37,358.62 22.03,57.42 -12.39,44.11 187.56,44.11 26.62,0 7.82,-29.32 -11.83,-81.95 -10.97,-29.4 -23.38,-59.56 -35.49,-91.4l-141.87 -376.69c-89.17,-228.49 -174.3,-470.44 -264.77,-700.63l-86.61 -238.87c-16.8,12.31 -65.67,157.27 -73.77,179.99 -11.78,33.09 -22.09,59.14 -34.9,91.98l-105.77 280.39c-10.98,33.1 -22.37,59.37 -34.61,92.27l-211.1 561.23c-12.01,31.57 -23.88,62.69 -35.49,91.39 -12.38,30.58 -23.27,61.27 -34.53,92.35 -8.24,22.73 -31.89,74.43 -32.46,99.94z"/>
   <path class="fil0" d="M14104.27 5272.63l0 562.71 187.54 0 0 -579.26c0,-17.75 216.64,-409.03 239,-450.57l152.67 -277.62c18.58,-37.68 85.5,-143.91 88.22,-176.58l-198.57 0 -203.35 392.45c-8.26,15.12 -15.26,28.21 -22.81,43.38 -27.76,55.78 -124.6,231.42 -132.38,264.81 -17.35,-12.71 -97.28,-178.37 -120.29,-216.22l-234.51 -438.51c-9.57,-19.15 -16.78,-28.84 -25.81,-45.91l-215.12 0c2.66,32 148.16,286.37 180.26,343.81l249.92 456.2c14.76,28.51 55.23,84.4 55.23,121.31z"/>
   <path class="fil0" d="M10441.66 4367.86l0 137.92c0,12.72 3.83,16.56 16.54,16.56l441.28 0 0 1296.45c0,12.71 3.84,16.55 16.55,16.55l159.96 0c12.71,0 16.55,-3.84 16.55,-16.55l0 -1296.45 441.28 0c12.71,0 16.55,-3.84 16.55,-16.56l0 -137.92c0,-12.71 -3.84,-16.55 -16.55,-16.55l-1075.62 0c-12.71,0 -16.54,3.84 -16.54,16.55z"/>
   <path class="fil0" d="M13138.97 4362.35l0 1461.96c0,12.71 3.84,16.55 16.55,16.55l182.03 0c12.71,0 16.54,-3.84 16.54,-16.55l0 -1461.96c0,-12.72 -3.83,-16.55 -16.54,-16.55l-182.03 0c-12.71,0 -16.55,3.83 -16.55,16.55z"/>
   <polygon class="fil0" points="5333.86,5840.86 5543.46,5840.86 5543.46,4345.8 5333.86,4345.8 "/>
   <path class="fil0" d="M10585.07 6497.36l-82.74 -5.51c0,-33.1 0.03,-66.21 0,-99.31 -0.06,-80.32 -13.17,-82.75 44.13,-82.75 79.29,0 154.45,15.18 154.45,93.79 0,61.3 -54.35,93.78 -115.84,93.78zm0 -248.25l-82.74 0 0 -171.03c77.44,0 182.03,-22 182.03,82.76 0,46.28 -67.35,88.27 -99.29,88.27zm-148.93 -226.19l0 529.61c27.97,0 30.05,5.52 60.68,5.52 95.71,0 212.2,10.83 263.08,-89.96 25.05,-49.62 23.53,-112.3 -13.36,-154.29 -19.5,-22.21 -26.05,-25.24 -51.28,-36.98 -2.35,-1.09 -9.46,-4.35 -11.28,-5.27l-7.14 -3.9c-0.75,-0.4 -2.41,-1.22 -3.51,-1.99 59.73,-13.92 96.35,-85.5 83.18,-154.77 -25.86,-135.94 -235.03,-95.08 -320.37,-87.97z"/>
   <path class="fil0" d="M6227.45 6193.94l11.03 0c2.87,34.51 46.65,113.05 49.64,148.95l-110.32 0c2.62,-31.48 47.29,-120.59 49.65,-148.95zm-198.58 358.59l71.71 0c2,-24.04 27.93,-83.6 37.59,-111.35 15.42,-44.26 -4.28,-32.09 166.5,-32.09 18.1,0 16.96,12.98 21.68,27.97 9.06,28.74 37.31,95.21 39,115.47l71.7 0 -148.98 -402.67c-8.85,-22.26 -16.72,-43.8 -25.47,-68.32 -9.23,-25.89 -17.9,-42.93 -24.12,-69.66l-11.03 0c-5.66,24.3 -14.69,41.23 -22.75,65.52 -7.58,22.86 -18.1,46.13 -26.07,67.71 -17.29,46.82 -34.13,89.58 -51.11,136.46l-75.75 200.08c-7.86,21.11 -21.04,48.55 -22.9,70.88z"/>
   <path class="fil0" d="M7148.62 6552.53l66.19 0 0 -220.67c0,-125.28 176.51,-163.6 176.51,-16.55l0 237.22 66.19 0 0 -270.32c0,-104.94 -60.1,-121.37 -137.9,-121.37 -52.15,0 -74.04,23.53 -104.8,44.13l0 -187.57 -66.19 0 0 535.13z"/>
   <path class="fil0" d="M11732.4 6221.52l11.03 0c44.72,0 71.71,26.99 71.71,71.72l0 22.07 -171 0c0,-57.37 31.78,-93.79 88.26,-93.79zm-165.48 137.92c0,269.97 264.03,213.7 303.38,159.99 -4.42,-18.94 -13.78,-33.99 -22.07,-49.65 -85.86,57.51 -196.96,52.63 -209.61,-99.3l242.71 0c6.23,-52.48 10.82,-62.48 -2.25,-119.12 -4.64,-20.1 -13.57,-34.05 -24.28,-47.44 -44.59,-55.74 -187.34,-68.99 -249.44,17.43 -22.27,30.99 -38.44,85.17 -38.44,138.09z"/>
   <path class="fil0" d="M8213.2 6221.52l11.03 0c57.8,0 72.82,40.89 77.23,93.79l-176.52 0c0,-57.37 31.79,-93.79 88.26,-93.79zm-165.48 132.41c0,284.68 268.68,212.87 303.38,165.5 -4.41,-18.94 -13.78,-33.99 -22.06,-49.65 -94.88,63.54 -206.55,37.98 -209.61,-99.3l242.7 0c0.81,-36.24 37.3,-209.64 -126.87,-209.64 -60.31,0 -106.96,2.53 -149.92,59.69 -23.2,30.88 -37.62,97.4 -37.62,133.4z"/>
   <path class="fil0" d="M9945.22 6221.52l11.03 0c59.62,0 72.68,39.15 77.22,93.79l-176.51 0c0,-54.36 34.88,-93.79 88.26,-93.79zm0 342.05c54.94,0 99.38,-12.82 137.9,-38.62 -1.8,-21.61 -13.56,-39.09 -22.07,-55.17 -63.33,42.42 -141.88,44.66 -180.05,-1.97 -18.64,-22.77 -26.59,-61.69 -29.55,-97.33l242.7 0c2.82,-33.88 5.52,-16.02 5.52,-71.72 0,-158.33 -172.41,-155.06 -239.22,-117.88 -116.63,64.91 -119.62,382.69 84.77,382.69z"/>
   <path class="fil0" d="M12107.48 6497.36c-89.65,0 -97.92,-87.27 -18.04,-106.31 55.02,-13.11 73.41,-4.63 100.78,-4.02 0,49.46 7.98,68.96 -28.25,93.11 -14.48,9.65 -31.16,17.22 -54.49,17.22zm-121.35 -297.91c5.75,11.98 15.25,34.03 16.55,49.66 58.48,-1.31 193.06,-92.61 193.06,66.2 0,35.07 -65.97,1.68 -153.46,28.58 -124.58,38.29 -89.09,214.16 26.59,214.16 93.77,0 81.2,-15.37 132.38,-49.65 18.75,39.08 -7.06,49.65 49.65,49.65 26.75,0 2.54,-61.21 5.33,-154.65 3.56,-118.92 48.38,-286.27 -203.68,-231.31 -27.02,5.89 -44.69,15.87 -66.42,27.36z"/>
   <path class="fil0" d="M12377.77 6182.9l0 193.09c0,124.66 22.69,187.58 137.89,187.58 39.17,0 78.18,-22.77 103.27,-51.19l12.57 -15.02c1.82,21.88 9.21,33.3 11.03,55.17l49.65 0c0,-29.24 -5.61,-55.65 -5.53,-93.78l0.49 -254.26c0.33,-43.04 3.78,-38.14 -55.64,-38.14 -26.32,0 -16.55,44.72 -16.55,93.79 0.01,93.26 17.76,192.98 -47.49,228.34 -143.1,77.54 -118,-132.71 -117.99,-228.34 0.01,-105.99 13.69,-93.79 -55.16,-93.79 -12.71,0 -16.54,3.84 -16.54,16.55z"/>
   <path class="fil0" d="M9095.76 6182.9c0,96.01 -15.43,282.3 27.21,342.41 31.43,44.3 116.54,49.09 169.79,20.14 25.29,-13.75 29.78,-28.22 51.22,-42.57 5.76,12.02 10.63,31.74 11.03,49.65l49.64 0c0,-38.72 -5.82,-53.8 -5.59,-93.71l0.55 -254.33c0.34,-44.15 5.04,-38.14 -66.67,-38.14l0 231.71c0,51.73 -47.6,104.82 -99.28,104.82 -66.8,0 -71.71,-66.2 -71.71,-132.4l0 -204.13c-47.05,0 -66.19,-6.48 -66.19,16.55z"/>
   <path class="fil0" d="M10882.93 6436.68c0,134.68 127.27,146.69 197.01,108.77 25.28,-13.75 29.78,-28.22 51.21,-42.57 4.78,20.51 10.48,24.77 11.04,49.65l49.64 0c0,-33.02 -5.68,-54.08 -5.53,-93.77l0.49 -254.27c0.34,-44.15 5.04,-38.14 -66.67,-38.14l0 231.71c0,95.2 -170.99,186.93 -170.99,-11.03l0 -220.68 -66.2 0 0 270.33z"/>
   <path class="fil0" d="M7810.53 6094.63l0 71.72c-64.54,0 -55.16,-9.58 -55.16,60.69l55.16 0c0,57.22 -5.84,245.36 12.96,290.46 34.61,83.02 174.59,31.44 174.59,18.48 0,-23.73 -6.44,-29.9 -11.04,-49.65 -120.39,28.05 -104.8,51.7 -104.8,-259.29 118.68,0 104.8,10.87 104.8,-44.14 0,-26.34 -36.92,-16.55 -104.8,-16.55l0 -88.27c-23.94,0.54 -48.97,11.26 -71.71,16.55z"/>
   <path class="fil0" d="M8836.51 6105.67l0 60.68c-70.77,0 -60.68,-10.09 -60.68,60.69l60.68 0 0 248.26c0,138.36 153.73,74.08 187.54,66.2 -4.44,-19.08 -8.92,-39.27 -16.55,-55.17 -17.82,4.15 -47.79,19.28 -70.7,15.67 -24.24,-3.81 -34.1,-30.59 -34.1,-59.8l0 -215.16 104.8 0c0,-75.23 17.48,-60.69 -104.8,-60.69l0 -88.27c-19.62,0.44 -66.19,6.3 -66.19,27.59z"/>
   <path class="fil0" d="M6768.01 6348.41c0,165.76 71.9,245.7 231.79,204.24 27.49,-7.13 36.25,-17.17 55.04,-22.18 -1.79,-21.61 -13.55,-39.09 -22.06,-55.17 -18.52,4.94 -17.62,11.05 -36.94,18.22 -191.59,71.2 -203.75,-272 -62.35,-272 71.18,0 60.53,15.69 99.29,16.55 1.93,-23.24 11.03,-29.25 11.03,-49.65 0,-25.04 -275.8,-96.71 -275.8,159.99z"/>
   <path class="fil0" d="M8444.87 6331.86c0,64.81 -1.34,129.47 40.03,180.64 57.63,71.29 173.35,61.64 246.8,12.45 -8.67,-16.38 -13.39,-33.27 -22.06,-49.65 -12.37,3.3 -48.84,27.58 -82.74,27.58 -95.91,0 -110.32,-79.63 -110.32,-154.47 0,-187.8 165.41,-112.18 187.54,-110.34 6.2,-12.91 15.1,-37.69 16.55,-55.17 -63.86,-33.79 -184.92,-36.13 -235.13,29.64 -20.24,26.52 -40.67,75.14 -40.67,119.32z"/>
   <path class="fil0" d="M11373.86 6204.97c-5.22,-10.87 -7.97,-25.47 -11.04,-38.62 -24.56,0 -49.64,-7.35 -49.64,16.55l0 369.63c87.56,0 71.78,8.93 71.71,-82.75l1.39 -197.21c15.52,-64.4 92.26,-40.01 114.44,-40.01 0.62,-27.57 10.42,-38.64 11.04,-66.21 -38.2,-4.53 -70,-13.94 -102.67,7.65 -14.68,9.71 -19.77,20.61 -35.23,30.97z"/>
   <path class="fil0" d="M9586.68 6204.97l-11.8 -38.36c-23.8,-0.26 -48.88,-7.61 -48.88,16.29l0 369.63 71.71 0 0 -264.81c0,-83.61 104.17,-55.42 115.84,-55.16 1.96,-23.55 10.47,-41 11.03,-66.21 -25.58,-0.57 -19.68,-5.51 -55.16,-5.51 -49.68,0 -54.55,25.25 -82.74,44.13z"/>
   <path class="fil0" d="M6580.47 6204.97l-11.03 0c-1,-44.9 -12.8,-38.62 -55.16,-38.62l0 386.18 66.19 0 0 -259.29c0,-30.65 33.15,-66.2 60.67,-66.2 30.63,0 32.71,5.52 60.68,5.52 0,-26.18 6.18,-39.85 11.03,-60.69 -42.55,-20.42 -119.89,-13.68 -132.38,33.1z"/>
   <polygon class="fil0" points="7595.41,6552.53 7661.6,6552.53 7661.6,6166.35 7595.41,6166.35 "/>
   <path class="fil0" d="M7622.99 6100.15c77.24,0 57.82,-88.27 5.52,-88.27 -60.53,0 -64.33,88.27 -5.52,88.27z"/>
  </g>
 </g>
</svg>
